# xmcd
#
# Track frame offsets: 
#        150
#        11403
#        28269
#        42562
#        52463
#        66178
#        79999
#        99792
#        114107
#        126142
#        142750
#        152476
#        163843
#        181712
#
# Disc length: 2537 seconds
#
# Revision: 2
# Processed by: cddbd v1.5.2PL0 Copyright (c) Steve Scherf et al.
# Submitted via: ExactAudioCopyFreeDBPlugin 1.0
#
DISCID=b109e70e
DTITLE=A.G. and the motel KINGS - Favorite Classics
DYEAR=1900
DGENRE=
TTITLE0=My Mumbling Baby
TTITLE1=Good Rockin' Man
TTITLE2=Cadillac Baby
TTITLE3=Nobody But You
TTITLE4=Women and Cadillacs
TTITLE5=Hot Dog
TTITLE6=Jumpin' Blues
TTITLE7=Good News
TTITLE8=All She Wants To Do Is Rock
TTITLE9=You Were Wrong
TTITLE10=Party Girl
TTITLE11=Don't Be Angry
TTITLE12=Rock This House
TTITLE13=Cherry Pink and Apple Blossom White
EXTD=
EXTT0=
EXTT1=
EXTT2=
EXTT3=
EXTT4=
EXTT5=
EXTT6=
EXTT7=
EXTT8=
EXTT9=
EXTT10=
EXTT11=
EXTT12=
EXTT13=
PLAYORDER=
